<?xml version="1.0" encoding="UTF-8" standalone="no"?>
<!-- Created with Inkscape (http://www.inkscape.org/) -->

<svg
   version="1.1"
   id="svg2"
   width="764.56"
   height="75.90667"
   viewBox="0 0 764.56 75.90667"
   sodipodi:docname="uvalogo_regular_p_nl.eps"
   xmlns:inkscape="http://www.inkscape.org/namespaces/inkscape"
   xmlns:sodipodi="http://sodipodi.sourceforge.net/DTD/sodipodi-0.dtd"
   xmlns="http://www.w3.org/2000/svg"
   xmlns:svg="http://www.w3.org/2000/svg">
  <defs
     id="defs6" />
  <sodipodi:namedview
     id="namedview4"
     pagecolor="#ffffff"
     bordercolor="#000000"
     borderopacity="0.25"
     inkscape:showpageshadow="2"
     inkscape:pageopacity="0.0"
     inkscape:pagecheckerboard="0"
     inkscape:deskcolor="#d1d1d1" />
  <g
     id="g8"
     inkscape:groupmode="layer"
     inkscape:label="ink_ext_XXXXXX"
     transform="matrix(1.3333333,0,0,-1.3333333,0,75.906667)">
    <g
       id="g10"
       transform="scale(0.1)">
      <path
         d="m 753.887,515.945 c 0,30.957 -18.844,30.957 -40.403,30.957 l -1.976,1.614 v 6.64 c 0,4.344 2.746,4.735 7.066,4.735 10.199,0 35.313,-1.993 53.75,-1.993 19.606,0 39.625,1.993 59.242,1.993 l 1.168,-1.219 v -10.156 l -1.949,-1.614 h -4.711 c -25.515,0 -36.898,-2.734 -36.898,-32.148 V 400.957 c 0,-56.492 10.992,-100.781 78.48,-100.781 70.219,0 92.969,33.703 92.969,100.027 v 101.973 c 0,44.726 0,41.613 -34.508,44.726 l -1.582,3.137 v 7.469 l 1.192,2.383 c 7.031,0 14.886,-1.993 44.328,-1.993 16.472,0 37.255,1.993 49.825,1.993 l 1.56,-2.383 v -8.211 l -2.36,-2.395 c -28.627,0 -38.81,-1.57 -38.81,-21.16 v -140.07 c 0,-71.766 -42.004,-108.262 -113.383,-108.262 -56.91,0 -113,20 -113,85.488 v 153.047"
         style="fill:#171717;fill-opacity:1;fill-rule:nonzero;stroke:none"
         id="path12" />
      <path
         d="m 1043.85,454.758 c 0,5.894 -0.3,7.359 -1.48,9.707 -2.64,5.015 -15.58,15.562 -20.58,15.887 l -15.59,0.886 c -1.17,0 -1.43,2.922 -1.43,5.266 0,1.484 0,3.816 1.43,3.816 9.13,0 16.18,0.586 23.52,0.586 13.55,0 35,-1.14 40.29,-1.777 l 89.08,-107.547 c 13.49,-16.465 26.74,-31.746 47.93,-52.941 h 1.15 v 129.375 c 0,19.355 -7.06,22.336 -16.47,22.617 l -12.63,0.605 c -1.19,0 -1.77,2.922 -1.77,4.953 0,1.797 0.89,4.715 2.64,4.715 6.49,0 21.76,-1.453 36.16,-1.453 13.22,0 27.35,1.453 35.59,1.453 1.44,0 1.76,-1.14 1.76,-2.363 v -5.547 c 0,-1.484 -0.61,-1.758 -2.64,-1.758 h -7.65 c -20.26,0 -20.26,-10.32 -20.26,-35.293 V 275.742 h -7.1 L 1057.08,457.109 V 322.176 c 0,-25.262 3.52,-28.211 28.81,-29.102 1.17,0 2.07,-2.625 2.07,-4.98 0,-2.352 -0.32,-4.727 -1.18,-4.727 -5.59,0 -24.43,1.496 -36.74,1.496 -14.45,0 -20.89,-1.496 -34.41,-1.496 -1.76,0 -2.06,2.094 -2.06,5.899 0,2.648 0.3,3.808 3.84,3.808 12.31,0 26.44,2.934 26.44,17.934 v 143.75"
         style="fill:#171717;fill-opacity:1;fill-rule:nonzero;stroke:none"
         id="path14" />
      <path
         d="m 1330.59,337.773 c 0,-42.929 0.87,-43.222 29.67,-44.699 l 1.46,-2.066 v -5.547 c 0,-1.762 -4.37,-2.094 -7.03,-2.094 -4.12,0 -23.83,1.496 -35.87,1.496 -14.12,0 -28.52,-1.496 -43.81,-1.496 -1.16,0.606 -1.46,2.375 -1.46,5.285 0.3,3.828 0.89,4.422 9.4,4.422 20.29,0 21.18,4.406 21.18,26.762 v 140.523 c 0,16.75 -5.01,20.879 -29.69,20.879 l -0.89,1.426 -0.58,4.746 c 0.28,3.215 2.92,3.496 4.69,3.496 7.97,0 17.35,-1.453 37.34,-1.453 14.7,0 32.36,1.453 44.08,1.453 l 1.5,-2.07 v -5.242 l -1.19,-1.778 -7.92,-0.578 c -11.78,-0.879 -20.88,-2.078 -20.88,-15.625 v -127.84"
         style="fill:#171717;fill-opacity:1;fill-rule:nonzero;stroke:none"
         id="path16" />
      <path
         d="m 1403.48,471.238 c -3.24,7.922 -14.98,9.981 -23.22,9.981 l -1.77,1.445 v 7.656 l 3.24,0.578 c 12.34,0 30.27,-1.445 36.72,-1.445 13.55,0 26.76,1.445 40.3,1.445 l 0.85,-0.851 -0.85,-8.242 -13.82,-1.172 c -4.7,-0.281 -10,-2.039 -10,-6.465 0,-2.352 1.48,-6.172 2.64,-8.816 l 33.82,-88.215 19.1,-43.797 c 2.06,-4.395 2.35,-5.266 3.23,-5.266 0.59,0 1.47,1.192 2.64,4.707 l 42.04,111.399 c 4.71,12.656 8.24,23.515 7.94,27.058 -0.28,4.961 -1.75,7.61 -10.28,8.496 l -15.29,1.485 -1.77,0.879 v 9.132 c 11.48,0 22.93,-1.777 34.38,-1.777 9.14,0 28.53,1.777 30.58,1.777 l 2.37,-1.183 v -6.777 l -2.64,-2.051 -9.13,-0.586 c -5.87,-0.281 -8.23,-3.25 -12.36,-13.543 -27.92,-67.317 -34.69,-88.449 -57.01,-145.215 l -15,-38.184 c -1.46,-4.152 -2.04,-4.414 -4.1,-4.414 -2.66,0 -3.24,0.868 -3.82,2.051 l -78.79,189.91"
         style="fill:#171717;fill-opacity:1;fill-rule:nonzero;stroke:none"
         id="path18" />
      <path
         d="m 1631.13,460.945 c 0,19.075 -14.42,21.164 -31.44,21.164 -1.19,0 -1.19,1.485 -1.19,2.637 v 3.231 c 0,2.656 4.99,2.921 15.31,2.921 11.75,0 24.97,-1.445 37.31,-1.445 11.78,0 23.5,1.445 35.29,1.445 h 62.02 c 2.34,0 2.64,-2.628 2.64,-5.859 v -35.867 c 0,-1.184 -0.58,-2.356 -2.07,-2.356 -2.33,0 -7.03,-0.273 -7.34,3.223 l -0.86,9.141 c -1.79,18.808 -14.71,22.05 -31.18,22.05 h -30.28 c -16.44,0 -21.75,-3.535 -21.75,-25.859 v -53.234 c 0,-0.867 1.78,-2.352 2.35,-2.352 l 34.68,1.172 c 17.65,0.606 22.64,6.16 27.06,21.785 0.58,1.75 1.45,2.356 4.68,2.356 2.06,0 3.56,-0.34 3.56,-1.789 0,-6.192 -1.77,-19.707 -1.77,-29.383 0,-15.891 1.77,-24.414 1.77,-29.406 0,-1.766 -2.93,-3.536 -4.72,-3.536 -2.35,0 -4.4,0.891 -4.99,3.852 -1.46,7.887 -1.46,13.484 -2.95,17.594 -1.46,4.414 -4.99,6.484 -13.8,6.781 l -41.75,0.855 c -4.12,0 -4.12,-1.433 -4.12,-3.484 V 316.57 c 0,-21.14 15.58,-21.726 35.87,-21.726 h 15.88 c 15.57,0 26.45,0.312 33.79,4.726 6.46,3.789 15.58,21.707 18.82,29.071 3.82,0 8.81,-0.868 8.81,-2.918 0,-0.899 -0.87,-3.235 -1.45,-4.707 l -8.26,-29.7 c -2.34,-7.957 -3.81,-7.957 -7.62,-7.957 -31.75,0 -62.93,1.512 -105.56,1.512 -9.68,0 -34.38,-1.512 -49.37,-1.512 -0.88,0 -1.75,2.938 -1.75,4.735 0,2.344 0.57,4.98 1.75,4.98 25.57,1.184 32.63,3.84 32.63,30.879 v 136.992"
         style="fill:#171717;fill-opacity:1;fill-rule:nonzero;stroke:none"
         id="path20" />
      <path
         d="m 1846.33,396.563 c 3.85,-0.293 7.38,-0.606 11.17,-0.606 23.53,0 52.94,8.254 52.94,42.938 0,25.839 -17.66,42.617 -43.52,42.617 -19.98,0 -20.59,-4.696 -20.59,-13.516 z m -26.44,62.625 c 0,14.667 -0.58,22.05 -19.09,22.05 h -12.05 c -1.78,0 -2.08,3.203 -2.08,5.567 0,1.476 0.88,4.101 2.08,4.101 17.03,0 34.38,-0.859 51.41,-0.859 13.55,0 26.76,0.859 40.31,0.859 29.97,0 59.35,-20 59.35,-50.828 0,-26.738 -24.41,-44.68 -47.3,-48.234 v -0.567 c 11.43,-2.644 23.51,-24.109 26.42,-28.789 l 32.34,-49.422 c 10.31,-15.597 17.07,-18.527 34.7,-19.414 l 1.77,-1.738 v -5.605 c 0,-2.61 -2.06,-2.942 -3.24,-2.942 -6.17,0 -15.28,0.91 -19.69,0.91 -7.05,0 -14.15,-0.91 -21.17,-0.91 -6.75,0 -19.97,19.707 -37.35,50.559 -19.08,33.828 -30.27,52.363 -49.65,52.363 -2.36,0 -5.89,0 -10.32,-0.617 v -72.031 c 0,-10.567 0,-20.567 14.72,-20.567 11.17,0 16.16,0 16.16,-2.32 0,-5.59 -0.86,-7.387 -5.28,-7.387 -15.28,0 -27.92,1.496 -40.55,1.496 -5.03,0 -37.67,-1.496 -41.76,-1.496 -1.78,0 -2.36,3.821 -2.36,6.203 0,2.625 1.17,3.211 7.07,3.504 20.27,0.891 25.56,3.828 25.56,24.133 v 141.981"
         style="fill:#171717;fill-opacity:1;fill-rule:nonzero;stroke:none"
         id="path22" />
      <path
         d="m 2033,390.383 c -21.15,12.652 -29.67,24.43 -29.67,47.301 0,36.777 30,57.336 69.64,57.336 11.18,0 27.05,-3.79 37.06,-8.215 l 2.06,-36.766 v -1.445 c 0,-1.485 -2.95,-2.051 -7.07,-2.051 -3.82,0 -4.38,1.746 -4.7,4.668 -2.06,19.695 -16.17,32.383 -37.04,32.383 -20,0 -35.56,-14.114 -35.56,-32.961 0,-21.153 12.92,-29.375 42.31,-44.949 29.1,-15.301 54.39,-28.789 54.39,-65.555 0,-40.012 -36.14,-60.844 -72.9,-60.844 -12.06,0 -32.04,3.809 -43.2,8.516 -2.33,1.172 -3.25,4.992 -4.13,11.457 l -3.5,27.637 c 0,1.746 5.86,1.746 7.63,1.746 0.87,0 1.75,-0.555 2.35,-2.625 6.75,-22.336 22.05,-35.262 45.56,-35.262 20.58,0 40.27,17.926 40.27,37.887 0,19.121 -10.86,30.578 -26.16,39.687 L 2033,390.383"
         style="fill:#171717;fill-opacity:1;fill-rule:nonzero;stroke:none"
         id="path24" />
      <path
         d="m 2208.51,337.773 c 0,-42.929 0.91,-43.222 29.7,-44.699 l 1.48,-2.066 v -5.547 c 0,-1.762 -4.42,-2.094 -7.05,-2.094 -4.15,0 -23.82,1.496 -35.89,1.496 -14.09,0 -28.49,-1.496 -43.78,-1.496 -1.17,0.606 -1.46,2.375 -1.46,5.285 0.29,3.828 0.88,4.422 9.42,4.422 20.26,0 21.14,4.406 21.14,26.762 v 140.523 c 0,16.75 -5,20.879 -29.68,20.879 l -0.88,1.426 -0.59,4.746 c 0.29,3.215 2.93,3.496 4.7,3.496 7.94,0 17.32,-1.453 37.32,-1.453 14.73,0 32.34,1.453 44.13,1.453 l 1.46,-2.07 v -5.242 l -1.17,-1.778 -7.98,-0.578 c -11.74,-0.879 -20.87,-2.078 -20.87,-15.625 v -127.84"
         style="fill:#171717;fill-opacity:1;fill-rule:nonzero;stroke:none"
         id="path26" />
      <path
         d="m 2367.11,314.852 c 0,-21.778 14.67,-21.778 32.91,-21.778 l 1.78,-1.453 v -4.707 c 0,-3.547 -1.49,-3.547 -6.17,-3.547 -5.89,0 -20.32,1.496 -40.87,1.496 -16.17,0 -41.44,-1.496 -48.51,-1.496 -0.57,2.094 -1.17,3.547 -1.17,5.285 0,0.918 0.31,2.676 1.17,3.262 l 2.98,1.16 h 3.47 c 26.77,0 27.93,9.141 27.93,33.516 v 139.355 l -0.86,13.508 h -39.38 c -22.39,0 -25.86,-14.101 -31.47,-32.91 -0.59,-1.777 -1.75,-2.648 -3.55,-2.648 -4.07,0 -6.72,1.183 -6.72,2.921 0,5.008 3.51,32.344 3.51,55.586 0,1.153 4.12,1.153 8.21,1.153 9.43,-12.649 12.38,-12.649 25,-12.649 h 109.37 c 20.55,0 26.43,6.192 33.8,15.293 2.03,0 8.82,0 8.82,-2.644 0,-2.364 -5.89,-26.438 -6.47,-47.629 0,-3.203 -0.86,-9.383 -2.35,-9.383 -2.64,0 -9.42,1.445 -9.42,2.922 l -1.16,14.723 c -1.19,14.972 -8.22,15.265 -20.3,15.265 h -40.55 V 314.852"
         style="fill:#171717;fill-opacity:1;fill-rule:nonzero;stroke:none"
         id="path28" />
      <path
         d="m 2494.33,460.945 c 0,19.075 -14.4,21.164 -31.44,21.164 -1.2,0 -1.2,1.485 -1.2,2.637 v 3.231 c 0,2.656 5,2.921 15.32,2.921 11.75,0 24.98,-1.445 37.3,-1.445 11.78,0 23.54,1.445 35.31,1.445 h 62 c 2.35,0 2.65,-2.628 2.65,-5.859 v -35.867 c 0,-1.184 -0.57,-2.356 -2.09,-2.356 -2.29,0 -7.03,-0.273 -7.34,3.223 l -0.85,9.141 c -1.79,18.808 -14.68,22.05 -31.18,22.05 h -30.28 c -16.44,0 -21.75,-3.535 -21.75,-25.859 v -53.234 c 0,-0.867 1.77,-2.352 2.35,-2.352 l 34.69,1.172 c 17.64,0.606 22.62,6.16 27.06,21.785 0.6,1.75 1.46,2.356 4.68,2.356 2.06,0 3.52,-0.34 3.52,-1.789 0,-6.192 -1.74,-19.707 -1.74,-29.383 0,-15.891 1.74,-24.414 1.74,-29.406 0,-1.766 -2.91,-3.536 -4.67,-3.536 -2.36,0 -4.41,0.891 -5.02,3.852 -1.42,7.887 -1.42,13.484 -2.95,17.594 -1.46,4.414 -4.98,6.484 -13.76,6.781 l -41.77,0.855 c -4.13,0 -4.13,-1.433 -4.13,-3.484 V 316.57 c 0,-21.14 15.58,-21.726 35.87,-21.726 h 15.85 c 15.59,0 26.49,0.312 33.82,4.726 6.53,3.789 15.59,21.707 18.83,29.071 3.84,0 8.83,-0.868 8.83,-2.918 0,-0.899 -0.86,-3.235 -1.48,-4.707 l -8.25,-29.7 c -2.34,-7.957 -3.82,-7.957 -7.63,-7.957 -31.74,0 -62.93,1.512 -105.56,1.512 -9.66,0 -34.37,-1.512 -49.37,-1.512 -0.86,0 -1.79,2.938 -1.79,4.735 0,2.344 0.64,4.98 1.79,4.98 25.57,1.184 32.64,3.84 32.64,30.879 v 136.992"
         style="fill:#171717;fill-opacity:1;fill-rule:nonzero;stroke:none"
         id="path30" />
      <path
         d="m 2714.51,337.773 c 0,-42.929 0.9,-43.222 29.68,-44.699 l 1.43,-2.066 v -5.547 c 0,-1.762 -4.37,-2.094 -7.02,-2.094 -4.14,0 -23.8,1.496 -35.83,1.496 -14.15,0 -28.52,-1.496 -43.81,-1.496 -1.17,0.606 -1.48,2.375 -1.48,5.285 0.31,3.828 0.87,4.422 9.42,4.422 20.28,0 21.15,4.406 21.15,26.762 v 140.523 c 0,16.75 -4.99,20.879 -29.7,20.879 l -0.87,1.426 -0.57,4.746 c 0.27,3.215 2.91,3.496 4.71,3.496 7.93,0 17.32,-1.453 37.28,-1.453 14.72,0 32.35,1.453 44.12,1.453 l 1.45,-2.07 v -5.242 l -1.15,-1.778 -7.93,-0.578 c -11.78,-0.879 -20.88,-2.078 -20.88,-15.625 v -127.84"
         style="fill:#171717;fill-opacity:1;fill-rule:nonzero;stroke:none"
         id="path32" />
      <path
         d="m 2867.44,314.852 c 0,-21.778 14.7,-21.778 32.95,-21.778 l 1.73,-1.453 v -4.707 c 0,-3.547 -1.48,-3.547 -6.15,-3.547 -5.9,0 -20.28,1.496 -40.82,1.496 -16.21,0 -41.46,-1.496 -48.56,-1.496 -0.56,2.094 -1.17,3.547 -1.17,5.285 0,0.918 0.31,2.676 1.17,3.262 l 2.96,1.16 h 3.53 c 26.74,0 27.91,9.141 27.91,33.516 v 139.355 l -0.91,13.508 h -39.34 c -22.38,0 -25.84,-14.101 -31.45,-32.91 -0.59,-1.777 -1.79,-2.648 -3.55,-2.648 -4.09,0 -6.78,1.183 -6.78,2.921 0,5.008 3.56,32.344 3.56,55.586 0,1.153 4.13,1.153 8.2,1.153 9.43,-12.649 12.34,-12.649 25.02,-12.649 h 109.33 c 20.59,0 26.45,6.192 33.85,15.293 2.04,0 8.82,0 8.82,-2.644 0,-2.364 -5.88,-26.438 -6.52,-47.629 0,-3.203 -0.84,-9.383 -2.3,-9.383 -2.66,0 -9.43,1.445 -9.43,2.922 l -1.19,14.723 c -1.18,14.972 -8.25,15.265 -20.32,15.265 h -40.54 V 314.852"
         style="fill:#171717;fill-opacity:1;fill-rule:nonzero;stroke:none"
         id="path34" />
      <path
         d="m 3065.96,471.238 c -3.2,7.922 -14.98,9.981 -23.2,9.981 l -1.78,1.445 v 7.656 l 3.26,0.578 c 12.29,0 30.22,-1.445 36.74,-1.445 13.5,0 26.7,1.445 40.26,1.445 l 0.91,-0.851 -0.91,-8.242 -13.81,-1.172 c -4.69,-0.281 -9.98,-2.039 -9.98,-6.465 0,-2.352 1.46,-6.172 2.61,-8.816 l 33.79,-88.215 19.16,-43.797 c 1.99,-4.395 2.35,-5.266 3.21,-5.266 0.62,0 1.5,1.192 2.67,4.707 l 42.01,111.399 c 4.71,12.656 8.21,23.515 7.95,27.058 -0.29,4.961 -1.77,7.61 -10.27,8.496 l -15.29,1.485 -1.78,0.879 v 9.132 c 11.46,0 22.93,-1.777 34.37,-1.777 9.12,0 28.54,1.777 30.59,1.777 l 2.32,-1.183 v -6.777 l -2.63,-2.051 -9.08,-0.586 c -5.9,-0.281 -8.25,-3.25 -12.37,-13.543 -27.91,-67.317 -34.65,-88.449 -57.01,-145.215 l -15.04,-38.184 c -1.42,-4.152 -2.03,-4.414 -4.1,-4.414 -2.62,0 -3.24,0.868 -3.79,2.051 l -78.81,189.91"
         style="fill:#171717;fill-opacity:1;fill-rule:nonzero;stroke:none"
         id="path36" />
      <path
         d="m 3337.04,377.137 -32.66,84.074 h -0.57 l -27.91,-84.074 z m -64.96,-11.434 -12.95,-41.75 c -2.35,-7.637 -3.52,-14.414 -3.52,-19.117 0,-9.68 13.83,-11.762 21.76,-11.762 2.65,0 3.22,-1.758 3.22,-5.566 0,-2.949 -0.25,-4.149 -2.3,-4.149 -6.78,0 -28.27,1.512 -36.21,1.512 -7.9,0 -20.24,-1.512 -29.07,-1.512 -5.9,0 -5.9,0.907 -5.9,4.746 v 3.211 c 0,1.477 2.66,2.082 9.69,2.657 15.28,1.465 17.38,4.406 22.97,20.566 l 58.15,169.316 c 5.89,4.981 12.07,11.77 19.45,14.141 l 73.75,-186.094 c 5,-12.332 10.25,-18.504 27.36,-18.504 3.22,0 3.77,-3.562 3.77,-6.777 0,-3.262 -2.05,-3.262 -5.58,-3.262 -4.69,0 -23.52,1.512 -34.97,1.512 -11.75,0 -23.53,-0.605 -35.25,-1.512 -4.37,0 -4.73,0.907 -4.73,5.047 0,3.215 1.78,4.668 5.92,4.668 4.42,0 18.77,0.899 18.77,7.973 0,2.312 -1.17,7.027 -5.29,17.312 l -18.79,47.344 h -70.25"
         style="fill:#171717;fill-opacity:1;fill-rule:nonzero;stroke:none"
         id="path38" />
      <path
         d="m 3458.6,454.758 c 0,5.894 -0.37,7.359 -1.52,9.707 -2.62,5.015 -15.59,15.562 -20.55,15.887 l -15.63,0.886 c -1.15,0 -1.48,2.922 -1.48,5.266 0,1.484 0,3.816 1.48,3.816 9.12,0 16.19,0.586 23.54,0.586 13.49,0 35,-1.14 40.23,-1.777 l 89.1,-107.547 c 13.54,-16.465 26.76,-31.746 47.91,-52.941 h 1.18 v 129.375 c 0,19.355 -7.03,22.336 -16.47,22.617 l -12.62,0.605 c -1.19,0 -1.79,2.922 -1.79,4.953 0,1.797 0.95,4.715 2.69,4.715 6.45,0 21.72,-1.453 36.14,-1.453 13.26,0 27.32,1.453 35.6,1.453 1.49,0 1.76,-1.14 1.76,-2.363 v -5.547 c 0,-1.484 -0.59,-1.758 -2.64,-1.758 h -7.67 c -20.28,0 -20.28,-10.32 -20.28,-35.293 V 275.742 h -7.09 L 3471.78,457.109 V 322.176 c 0,-25.262 3.48,-28.211 28.81,-29.102 1.19,0 2.03,-2.625 2.03,-4.98 0,-2.352 -0.27,-4.727 -1.13,-4.727 -5.65,0 -24.41,1.496 -36.78,1.496 -14.37,0 -20.86,-1.496 -34.39,-1.496 -1.74,0 -2.09,2.094 -2.09,5.899 0,2.648 0.35,3.808 3.83,3.808 12.38,0 26.54,2.934 26.54,17.934 v 143.75"
         style="fill:#171717;fill-opacity:1;fill-rule:nonzero;stroke:none"
         id="path40" />
      <path
         d="m 3915.3,408.027 -43.52,112.235 h -0.82 l -37.28,-112.235 z m -86.74,-15.273 -17.27,-55.715 c -3.12,-10.215 -4.64,-19.238 -4.64,-25.516 0,-12.949 18.37,-15.695 29.04,-15.695 3.48,0 4.3,-2.351 4.3,-7.422 0,-3.965 -0.43,-5.515 -3.17,-5.515 -8.98,0 -37.65,1.98 -48.28,1.98 -10.51,0 -27.05,-1.98 -38.81,-1.98 -7.87,0 -7.87,1.16 -7.87,6.269 v 4.317 c 0,1.961 3.52,2.742 12.97,3.543 20.43,1.933 23.2,5.89 30.66,27.46 l 77.64,225.969 c 7.83,6.66 16.02,15.711 25.84,18.828 l 98.48,-248.339 c 6.7,-16.465 13.77,-24.719 36.48,-24.719 4.36,0 5.08,-4.696 5.08,-9.031 0,-4.297 -2.68,-4.297 -7.38,-4.297 -6.33,0 -31.39,1.98 -46.76,1.98 -15.63,0 -31.35,-0.82 -47.03,-1.98 -5.86,0 -6.29,1.16 -6.29,6.679 0,4.297 2.34,6.258 7.91,6.258 5.9,0 25.1,1.192 25.1,10.598 0,3.113 -1.57,9.433 -7.13,23.144 l -25.1,63.184 h -93.77"
         style="fill:#171717;fill-opacity:1;fill-rule:nonzero;stroke:none"
         id="path42" />
      <path
         d="m 4240.26,490.898 c 9.12,0 18.49,-0.851 27.91,-0.851 7.38,0 15,0.851 22.34,0.851 4.42,0 5.3,-1.132 5.3,-2.062 v -4.676 c 0,-2.051 -0.88,-3.527 -2.09,-3.527 -2.05,0 -5.26,0.597 -8.81,0.597 -17.07,0 -17.07,-8.527 -17.07,-27.644 0,-16.75 3.26,-126.691 3.26,-142.863 0,-8.215 4.12,-17.649 16.76,-17.649 11.75,0 13.18,-0.594 13.18,-3.238 0,-3.539 -1.72,-6.477 -2.6,-6.477 -15.6,0 -27.91,1.512 -40.27,1.512 -12.34,0 -24.98,-1.512 -37.62,-1.512 -2.09,0 -2.34,1.192 -2.34,2.938 v 2.961 c 0,2.937 2.63,3.816 16.15,3.816 5.9,0 11.17,7.055 11.17,17.348 0,31.726 -1.15,100.242 -2.36,150.523 -1.17,0.266 -0.88,0.266 -0.88,0.266 -16.45,-33.809 -37.89,-82.891 -47.89,-109.063 l -27.7,-72.609 c -0.21,-0.859 -1.13,-1.738 -2.61,-1.738 -1.43,0 -2.64,1.484 -3.5,5.558 -1.76,7.403 -4.39,14.442 -7.38,21.477 l -55.55,135.242 c -2.09,5 -3.83,8.524 -4.96,8.524 -1.25,0 -1.25,-5.868 -1.25,-9.129 0,-23.235 -3.48,-111.985 -3.48,-126.407 0,-12.636 0,-19.992 25.88,-19.992 1.76,0 2.03,-1.453 2.03,-4.98 0,-1.172 -0.27,-4.735 -1.46,-4.735 -4.14,0 -18.52,1.512 -34.4,1.512 -16.71,0 -33.2,-1.512 -37.34,-1.512 -0.86,0 -1.78,0.918 -1.78,2.395 v 4.391 c 0,2.648 2.39,2.929 5.92,2.929 24.08,0 27.62,7.356 27.62,32.949 0,14.399 4.94,122.579 4.94,133.157 0,15.586 -7.6,22.05 -34,22.05 -0.92,0 -1.53,1.446 -1.53,3.231 v 3.809 c 0,1.496 0.9,2.628 2.4,2.628 11.14,0 21.74,-1.445 33.48,-1.445 7.33,0 14.98,1.445 22.35,1.445 2.09,0 4.14,-4.707 5.56,-8.515 l 63.52,-151.973 h 1.38 l 67.72,160.488"
         style="fill:#171717;fill-opacity:1;fill-rule:nonzero;stroke:none"
         id="path44" />
      <path
         d="m 4346.57,390.383 c -21.23,12.652 -29.75,24.43 -29.75,47.301 0,36.777 29.96,57.336 69.67,57.336 11.19,0 27.05,-3.79 37.07,-8.215 l 2.05,-36.766 v -1.445 c 0,-1.485 -2.95,-2.051 -7.09,-2.051 -3.83,0 -4.37,1.746 -4.69,4.668 -2.03,19.695 -16.15,32.383 -37.05,32.383 -19.96,0 -35.54,-14.114 -35.54,-32.961 0,-21.153 12.94,-29.375 42.34,-44.949 29.12,-15.301 54.39,-28.789 54.39,-65.555 0,-40.012 -36.21,-60.844 -72.91,-60.844 -12.07,0 -32.09,3.809 -43.24,8.516 -2.34,1.172 -3.22,4.992 -4.12,11.457 l -3.53,27.637 c 0,1.746 5.89,1.746 7.65,1.746 0.96,0 1.78,-0.555 2.35,-2.625 6.77,-22.336 22.1,-35.262 45.6,-35.262 20.59,0 40.23,17.926 40.23,37.887 0,19.121 -10.83,30.578 -26.11,39.687 l -37.32,22.055"
         style="fill:#171717;fill-opacity:1;fill-rule:nonzero;stroke:none"
         id="path46" />
      <path
         d="m 4560.67,314.672 c 0,-21.777 14.67,-21.777 32.91,-21.777 l 1.78,-1.454 v -4.707 c 0,-3.546 -1.49,-3.546 -6.21,-3.546 -5.86,0 -20.24,1.496 -40.82,1.496 -16.2,0 -41.49,-1.496 -48.5,-1.496 -0.65,2.089 -1.19,3.546 -1.19,5.285 0,0.906 0.31,2.675 1.19,3.261 l 2.95,1.161 h 3.51 c 26.76,0 27.93,9.14 27.93,33.515 v 139.356 l -0.88,13.507 h -39.39 c -22.34,0 -25.92,-14.101 -31.48,-32.91 -0.55,-1.777 -1.76,-2.648 -3.52,-2.648 -4.16,0 -6.72,1.183 -6.72,2.922 0,5.008 3.48,32.332 3.48,55.586 0,1.152 4.12,1.152 8.24,1.152 9.41,-12.648 12.34,-12.648 24.96,-12.648 h 109.36 c 20.58,0 26.48,6.191 33.82,15.293 2.09,0 8.81,0 8.81,-2.645 0,-2.363 -5.88,-26.437 -6.46,-47.629 0,-3.203 -0.92,-9.383 -2.35,-9.383 -2.65,0 -9.39,1.446 -9.39,2.918 l -1.15,14.727 c -1.23,14.961 -8.26,15.265 -20.33,15.265 h -40.55 V 314.672"
         style="fill:#171717;fill-opacity:1;fill-rule:nonzero;stroke:none"
         id="path48" />
      <path
         d="m 4684.05,460.945 c 0,19.075 -14.42,21.164 -31.45,21.164 -1.15,0 -1.15,1.485 -1.15,2.637 v 3.231 c 0,2.656 4.98,2.921 15.27,2.921 11.72,0 24.96,-1.445 37.35,-1.445 11.74,0 23.49,1.445 35.23,1.445 h 62.07 c 2.31,0 2.62,-2.628 2.62,-5.859 v -35.867 c 0,-1.184 -0.63,-2.356 -2.09,-2.356 -2.34,0 -7.05,-0.273 -7.34,3.223 l -0.9,9.141 c -1.74,18.808 -14.67,22.05 -31.12,22.05 h -30.29 c -16.44,0 -21.76,-3.535 -21.76,-25.859 v -53.234 c 0,-0.867 1.78,-2.352 2.41,-2.352 l 34.62,1.172 c 17.64,0.606 22.68,6.16 27.06,21.785 0.58,1.75 1.5,2.356 4.76,2.356 2.03,0 3.44,-0.34 3.44,-1.789 0,-6.192 -1.72,-19.707 -1.72,-29.383 0,-15.891 1.72,-24.414 1.72,-29.406 0,-1.766 -2.89,-3.536 -4.67,-3.536 -2.34,0 -4.39,0.891 -5,3.852 -1.46,7.887 -1.46,13.484 -2.91,17.594 -1.52,4.414 -5.04,6.484 -13.87,6.781 l -41.72,0.855 c -4.12,0 -4.12,-1.433 -4.12,-3.484 V 316.57 c 0,-21.14 15.59,-21.726 35.88,-21.726 h 15.88 c 15.59,0 26.45,0.312 33.81,4.726 6.5,3.789 15.57,21.707 18.77,29.071 3.87,0 8.83,-0.868 8.83,-2.918 0,-0.899 -0.86,-3.235 -1.43,-4.707 l -8.26,-29.7 c -2.34,-7.957 -3.79,-7.957 -7.64,-7.957 -31.75,0 -62.93,1.512 -105.5,1.512 -9.71,0 -34.4,-1.512 -49.38,-1.512 -0.92,0 -1.8,2.938 -1.8,4.735 0,2.344 0.59,4.98 1.8,4.98 25.53,1.184 32.6,3.84 32.6,30.879 v 136.992"
         style="fill:#171717;fill-opacity:1;fill-rule:nonzero;stroke:none"
         id="path50" />
      <path
         d="m 4895.02,396.563 c 3.81,-0.293 7.37,-0.606 11.16,-0.606 23.49,0 52.93,8.254 52.93,42.938 0,25.839 -17.64,42.617 -43.5,42.617 -20.02,0 -20.59,-4.696 -20.59,-13.516 z m -26.44,62.625 c 0,14.667 -0.63,22.05 -19.16,22.05 h -12.07 c -1.72,0 -2.03,3.203 -2.03,5.567 0,1.476 0.92,4.101 2.03,4.101 17.07,0 34.49,-0.859 51.5,-0.859 13.54,0 26.76,0.859 40.26,0.859 30,0 59.41,-20 59.41,-50.828 0,-26.738 -24.41,-44.68 -47.34,-48.234 v -0.567 c 11.46,-2.644 23.53,-24.109 26.44,-28.789 l 32.35,-49.422 c 10.25,-15.597 17.03,-18.527 34.7,-19.414 l 1.72,-1.738 v -5.605 c 0,-2.61 -2.03,-2.942 -3.2,-2.942 -6.21,0 -15.33,0.91 -19.73,0.91 -7.07,0 -14.1,-0.91 -21.13,-0.91 -6.78,0 -20,19.707 -37.34,50.559 -19.11,33.828 -30.32,52.363 -49.73,52.363 -2.31,0 -5.86,0 -10.24,-0.617 v -72.031 c 0,-10.567 0,-20.567 14.73,-20.567 11.09,0 16.15,0 16.15,-2.32 0,-5.59 -0.86,-7.387 -5.35,-7.387 -15.29,0 -27.87,1.496 -40.55,1.496 -4.96,0 -37.55,-1.496 -41.71,-1.496 -1.76,0 -2.37,3.821 -2.37,6.203 0,2.625 1.16,3.211 7.03,3.504 20.28,0.891 25.63,3.828 25.63,24.133 v 141.981"
         style="fill:#171717;fill-opacity:1;fill-rule:nonzero;stroke:none"
         id="path52" />
      <path
         d="m 5105.94,325.43 c 0,-32.344 33.23,-32.344 46.12,-32.344 40.25,0 83.16,33.203 83.16,94.676 0,52.336 -28.18,78.203 -48.5,89.941 -14.08,6.172 -32.63,7.637 -45.25,7.637 -24.08,0 -35.53,-1.738 -35.53,-20.582 z m -26.52,131.121 c 0,11.164 -2.31,22.617 -13.22,22.617 -3.52,0 -12.89,-1.16 -18.5,-1.16 -1.19,0 -1.19,4.394 -1.19,5.867 0,1.77 0,2.648 5.02,3.801 19.72,4.14 66.7,7.351 91.97,7.351 16.21,0 31.49,-1.464 45.9,-5.254 39.94,-10.906 77.3,-46.472 77.3,-100.554 0,-72.879 -60.89,-105.852 -116.73,-105.852 -27.93,0 -42.64,1.203 -57.27,1.203 -14.73,0 -29.41,-0.871 -44.12,-1.203 -1.17,0 -1.47,2.656 -1.47,4.746 0,2.051 1.47,4.973 2.64,4.973 9.43,1.191 17.03,1.766 22.36,5.312 4.4,2.942 7.31,7.657 7.31,17.024 v 141.129"
         style="fill:#171717;fill-opacity:1;fill-rule:nonzero;stroke:none"
         id="path54" />
      <path
         d="m 5383.93,377.137 -32.66,84.074 h -0.6 l -27.83,-84.074 z m -65.02,-11.434 -12.87,-41.75 c -2.4,-7.637 -3.54,-14.414 -3.54,-19.117 0,-9.68 13.81,-11.762 21.76,-11.762 2.62,0 3.21,-1.758 3.21,-5.566 0,-2.949 -0.32,-4.149 -2.35,-4.149 -6.78,0 -28.2,1.512 -36.15,1.512 -7.95,0 -20.29,-1.512 -29.1,-1.512 -5.86,0 -5.86,0.907 -5.86,4.746 v 3.211 c 0,1.477 2.66,2.082 9.69,2.657 15.27,1.465 17.32,4.406 22.91,20.566 l 58.18,169.316 c 5.88,4.981 12.09,11.77 19.41,14.141 l 73.79,-186.094 c 5.04,-12.332 10.34,-18.504 27.35,-18.504 3.26,0 3.83,-3.562 3.83,-6.777 0,-3.262 -2.04,-3.262 -5.55,-3.262 -4.69,0 -23.56,1.512 -35,1.512 -11.8,0 -23.56,-0.605 -35.31,-1.512 -4.38,0 -4.69,0.907 -4.69,5.047 0,3.215 1.78,4.668 5.86,4.668 4.41,0 18.85,0.899 18.85,7.973 0,2.312 -1.18,7.027 -5.32,17.312 l -18.79,47.344 h -70.31"
         style="fill:#171717;fill-opacity:1;fill-rule:nonzero;stroke:none"
         id="path56" />
      <path
         d="m 5673.29,490.898 c 9.14,0 18.53,-0.851 27.95,-0.851 7.3,0 15,0.851 22.34,0.851 4.39,0 5.25,-1.132 5.25,-2.062 v -4.676 c 0,-2.051 -0.86,-3.527 -1.99,-3.527 -2.09,0 -5.33,0.597 -8.87,0.597 -17.01,0 -17.01,-8.527 -17.01,-27.644 0,-16.75 3.21,-126.691 3.21,-142.863 0,-8.215 4.14,-17.649 16.77,-17.649 11.7,0 13.24,-0.594 13.24,-3.238 0,-3.539 -1.77,-6.477 -2.65,-6.477 -15.63,0 -27.93,1.512 -40.29,1.512 -12.35,0 -24.99,-1.512 -37.66,-1.512 -2.03,0 -2.33,1.192 -2.33,2.938 v 2.961 c 0,2.937 2.64,3.816 16.14,3.816 5.9,0 11.15,7.055 11.15,17.348 0,31.726 -1.11,100.242 -2.29,150.523 -1.17,0.266 -0.91,0.266 -0.91,0.266 -16.47,-33.809 -37.91,-82.891 -47.89,-109.063 l -27.62,-72.609 c -0.31,-0.859 -1.23,-1.738 -2.66,-1.738 -1.48,0 -2.63,1.484 -3.53,5.558 -1.76,7.403 -4.42,14.442 -7.37,21.477 l -55.54,135.242 c -2.07,5 -3.81,8.524 -4.98,8.524 -1.17,0 -1.17,-5.868 -1.17,-9.129 0,-23.235 -3.58,-111.985 -3.58,-126.407 0,-12.636 0,-19.992 25.9,-19.992 1.78,0 2.03,-1.453 2.03,-4.98 0,-1.172 -0.25,-4.735 -1.48,-4.735 -4.07,0 -18.5,1.512 -34.38,1.512 -16.78,0 -33.22,-1.512 -37.3,-1.512 -0.86,0 -1.74,0.918 -1.74,2.395 v 4.391 c 0,2.648 2.3,2.929 5.82,2.929 24.14,0 27.65,7.356 27.65,32.949 0,14.399 5,122.579 5,133.157 0,15.586 -7.59,22.05 -34.14,22.05 -0.82,0 -1.46,1.446 -1.46,3.231 v 3.809 c 0,1.496 0.92,2.628 2.38,2.628 11.17,0 21.74,-1.445 33.58,-1.445 7.28,0 14.92,1.445 22.26,1.445 2.09,0 4.12,-4.707 5.63,-8.515 L 5604.2,330.41 h 1.51 l 67.58,160.488"
         style="fill:#171717;fill-opacity:1;fill-rule:nonzero;stroke:none"
         id="path58" />
      <path
         d="M 566.93,0 H 0 V 566.934 H 566.93 V 0"
         style="fill:#231f20;fill-opacity:1;fill-rule:nonzero;stroke:none"
         id="path60" />
      <path
         d="m 240.66,405.496 42.813,42.813 42.82,-42.813 23.68,23.688 -42.801,42.828 42.801,42.797 -23.68,23.703 -42.82,-42.809 -42.813,42.809 -23.695,-23.703 42.82,-42.797 -42.82,-42.828 23.695,-23.688"
         style="fill:#ffffff;fill-opacity:1;fill-rule:nonzero;stroke:none"
         id="path62" />
      <path
         d="m 240.66,247.938 42.813,42.816 42.82,-42.816 23.68,23.683 -42.801,42.832 42.801,42.797 -23.68,23.703 -42.82,-42.808 -42.813,42.808 -23.695,-23.703 42.82,-42.797 -42.82,-42.832 23.695,-23.683"
         style="fill:#ffffff;fill-opacity:1;fill-rule:nonzero;stroke:none"
         id="path64" />
      <path
         d="m 240.66,28.6523 42.813,42.8125 42.82,-42.8125 23.68,23.6915 -42.801,42.8203 42.801,42.8049 -23.68,23.691 -42.82,-42.805 -42.813,42.805 -23.695,-23.691 42.82,-42.8049 -42.82,-42.8203 23.695,-23.6915"
         style="fill:#ffffff;fill-opacity:1;fill-rule:nonzero;stroke:none"
         id="path66" />
      <path
         d="m 412.328,406.121 -49.258,-2.266 c 0,0 7.032,-52.011 4.055,-104.55 -2.863,-50.164 -10.77,-58.985 -10.77,-58.985 -11.128,-20.886 -45.585,-25.976 -63.203,-27.332 -17.672,-1.386 -25.562,-0.429 -25.562,-0.429 0,0 -50.836,1.953 -62.238,25.625 -6.497,13.488 -7.868,39.961 -7.868,39.961 0,0 -0.3,124.058 -0.75,126.859 -0.285,1.5 -10.285,-1.094 -21.867,-1.024 -9.429,0.028 -23.226,0.645 -23.226,0.645 l 4.086,-91.133 -0.551,-53.863 c 0,0 0,-28.899 7.414,-40.422 12.508,-19.559 26.433,-26.551 34.34,-30.254 7.89,-3.75 20.433,-7.48 34.371,-10.262 13.926,-2.812 37.179,-4.238 67.816,3.614 30.656,7.898 44.211,21.797 44.211,21.797 l 23.235,21.836 -0.071,-51.614 48.801,14.367 c 0,0 -6.441,40.899 -6.371,110.582 0.07,69.707 3.406,106.848 3.406,106.848"
         style="fill:#ffffff;fill-opacity:1;fill-rule:nonzero;stroke:none"
         id="path68" />
    </g>
  </g>
</svg>
